<?xml version="1.0" encoding="utf-8"?>
<!-- Generator: Adobe Illustrator 27.3.1, SVG Export Plug-In . SVG Version: 6.00 Build 0)  -->
<svg version="1.1" id="Layer_1" xmlns="http://www.w3.org/2000/svg" xmlns:xlink="http://www.w3.org/1999/xlink" x="0px" y="0px"
	 viewBox="0 0 100 100" style="enable-background:new 0 0 100 100;" xml:space="preserve">
<g>
	<path d="M72.3,34.9L72.3,34.9C72.1,34.9,72.1,34.9,72.3,34.9c-0.3,0-0.3-0.3-0.3-0.3l2-12l9.2,9.2L73.6,36l0,0l0,0l0,0
		C73.1,35.4,72.6,35.2,72.3,34.9z M85.6,34.2l10,10c2,2,3.1,3.1,3.6,4.4c0,0.3,0,0.3,0.3,0.5L75.4,39l0,0c0,0-0.3,0-0.3-0.3
		s0-0.3,0.3-0.3l0,0L85.6,34.2z M98.7,52.1c-0.5,1-1.5,2-3.1,3.6L84.4,66.9l-14.6-3.1l0,0c0,0-0.3,0-0.3-0.3c0-1.3-0.8-2.3-1.8-3.1
		v-0.3l0,0l2.8-16.6l0,0c0,0,0-0.3,0.3-0.3c1.3-0.3,2.3-0.8,3.1-1.8l0,0h0.3L98.7,52.1L98.7,52.1z M81.8,69.5L63.4,87.9l3.1-19.5
		l0,0l0,0c0,0,0,0,0.3,0l0,0c0.8-0.3,1.3-0.8,1.8-1.3l0.3-0.3l0,0L81.8,69.5L81.8,69.5z M59.5,91.8l-2,2l-23-33l0,0c0,0,0,0,0-0.3
		l0,0l0,0l0.3-0.3l0,0l0,0c0,0,0,0,0.3-0.3h0.3l25.4,5.1h0.3l0,0c0.3,1.3,1.3,2.6,2.6,3.1c0,0,0,0,0,0.3l0,0
		C63.1,70.5,60.3,87.4,59.5,91.8z M55.2,96.1c-1.5,1.5-2.3,2.3-3.3,2.6c-1,0.3-2,0.3-3.1,0c-1.3-0.3-2.3-1.3-4.4-3.6l-23-23l5.9-9.2
		l0,0h0.3c1.3,0.5,2.8,0.3,4.1-0.3h0.3l0,0L55.2,96.1L55.2,96.1z M19.1,70l-5.1-5.1l10.2-4.6l0,0c0,0,0.3,0,0.3,0.3s0.3,0.3,0.3,0.5
		l0,0l0,0L19.1,70L19.1,70z M11.6,62.6L5,55.9c-1-1-2-2-2.6-2.6l20.2,4.1l0,0c0,0,0.3,0,0.3,0.3L22.7,58l0,0L11.6,62.6z M1.1,49.8
		c0-0.5,0-0.8,0.3-1.3c0.3-1.3,1.5-2.3,3.6-4.4l8.5-8.5c3.8,5.6,7.9,11.5,11.8,17.2c0,0,0.3,0.3,0,0.3c-0.3,0.5-0.8,0.8-1,1.3
		c0,0,0,0-0.3,0.3l0,0l0,0L1.1,49.8L1.1,49.8z M15.7,33.4l11.5-11.5c1,0.5,5.1,2,8.5,3.6c2.6,1,5.1,2,5.9,2.6c0,0,0.3,0,0.3,0.3
		c0,0,0,0,0,0.3c-0.3,1.8,0.3,3.3,1.3,4.6v0.3l0,0L31.4,51.6l0,0h-0.3c-0.5,0-1-0.3-1.3-0.3c-0.5,0-0.8,0-1.3,0.3l0,0c0,0,0,0-0.3,0
		c0,0,0,0,0-0.3L15.7,33.4L15.7,33.4z M29.6,19.6L44.4,4.7c2-2,3.1-3.1,4.4-3.6c1-0.3,2-0.3,3.1,0c1.3,0.3,2.3,1.3,4.4,3.6L59.5,8
		L49,24.4l0,0h-0.3c-1.8-0.5-3.6-0.3-4.9,1h-0.3C41.9,24.7,31.1,20.1,29.6,19.6z M61.6,10.1l9.7,9.7L69,34.4l0,0l0,0l0,0
		c-0.5,0.3-1,0.5-1.3,0.8l0,0l0,0l0,0L52.4,29l0,0c0,0-0.3,0-0.3-0.3c0-0.8-0.3-1.5-0.8-2.3c0,0-0.3-0.3,0-0.3L61.6,10.1z
		 M51.6,32.1L65.7,38c0,0,0.3,0,0.3,0.3c0,0,0,0,0,0.3s0,0.5,0,0.8l0,0c0,0,0,0.3-0.3,0.3l0,0c-2.3,1-31,13.3-31,13.3s0,0-0.3,0
		v-0.3l0,0L46,34.9l0,0l0.3-0.3l0,0c0.3,0,0.5,0,0.8,0c1.8,0,3.3-0.8,4.4-2.3C51.1,32.1,51.1,32.1,51.6,32.1
		C51.3,32.1,51.3,32.1,51.6,32.1z M35.5,55.7L67,42.4l0,0c0.3,0.3,0.3,0.3,0.5,0.5l0,0c0,0,0,0,0.3,0.3l0,0l-2.8,16.6l0,0
		c0,0,0,0.3-0.3,0.3c-1.5,0-2.8,1-3.6,2l0,0c0,0,0,0,0,0.3c0,0,0,0-0.3,0l-25.1-5.1C36,57,35.5,55.7,35.5,55.7z"/>
</g>
</svg>
